<?xml version="1.0" standalone="no"?>
<!DOCTYPE svg PUBLIC "-//W3C//DTD SVG 20010904//EN"
 "http://www.w3.org/TR/2001/REC-SVG-20010904/DTD/svg10.dtd">
<svg version="1.0" xmlns="http://www.w3.org/2000/svg"
 width="500.000000pt" height="500.000000pt" viewBox="0 0 500.000000 500.000000"
 preserveAspectRatio="xMidYMid meet">
<metadata>
Created by potrace 1.14, written by Peter Selinger 2001-2017
</metadata>
<g transform="translate(0.000000,500.000000) scale(0.100000,-0.100000)"
fill="#000000" stroke="none">
<path d="M2387 4844 c-1 -1 -41 -5 -88 -8 -47 -4 -95 -8 -105 -10 -10 -2 -39
-7 -64 -11 -25 -4 -54 -9 -65 -11 -11 -2 -33 -7 -50 -10 -98 -17 -327 -89
-435 -136 -40 -17 -192 -93 -260 -130 -68 -36 -201 -128 -314 -218 -69 -54
-176 -157 -256 -246 -281 -312 -485 -719 -559 -1114 -6 -30 -12 -64 -15 -75
-2 -11 -7 -49 -11 -85 -4 -36 -9 -78 -11 -95 -5 -39 -5 -371 0 -410 2 -16 7
-59 11 -95 6 -64 51 -285 60 -299 2 -4 6 -18 9 -32 19 -100 122 -356 201 -499
53 -95 135 -223 147 -228 4 -2 8 -10 8 -18 0 -8 4 -14 8 -14 4 0 16 -13 25
-30 10 -16 23 -35 30 -42 7 -7 39 -44 71 -81 51 -60 125 -135 236 -238 52 -48
209 -163 298 -219 259 -160 606 -289 877 -325 23 -3 51 -7 65 -10 116 -22 462
-22 591 0 13 2 44 6 68 9 51 6 172 32 251 53 445 121 877 389 1158 721 109
128 109 127 129 159 9 15 20 30 24 33 10 9 95 143 135 215 107 190 220 493
249 664 2 14 11 67 19 116 18 101 29 251 30 370 0 87 -11 266 -18 287 -3 7 -7
37 -11 67 -15 137 -95 420 -160 566 -23 53 -87 181 -127 256 -22 42 -165 251
-195 286 -16 18 -46 53 -68 79 -22 26 -74 82 -116 123 -65 66 -103 100 -190
171 -53 44 -189 140 -197 140 -6 0 -12 3 -14 8 -1 4 -19 16 -38 26 -19 10 -62
34 -95 53 -247 143 -609 252 -920 279 -74 6 -313 12 -318 8z"/>
</g>
</svg>
